<svg width="15" height="14" viewBox="0 0 15 14" fill="none" xmlns="http://www.w3.org/2000/svg">
<path fill-rule="evenodd" clip-rule="evenodd" d="M13.9975 7.73858C14.0304 8.11669 13.7324 8.44177 13.3528 8.44177H12.1173C11.7599 8.44177 11.4702 8.15206 11.4702 7.79466V1.64706C11.4702 1.28965 11.7599 0.999941 12.1173 0.999941H12.8183C13.1539 0.999941 13.4339 1.25659 13.4629 1.59098L13.9975 7.73858Z" stroke="#474747" stroke-width="1.152" stroke-linecap="round" stroke-linejoin="round"/>
<path fill-rule="evenodd" clip-rule="evenodd" d="M9.52832 7.99707C9.52832 8.26747 9.36026 8.50949 9.11569 8.62477C8.5823 8.87621 7.6734 9.38212 7.26342 10.0659C6.73501 10.9471 6.63536 12.5394 6.61915 12.9041C6.61688 12.9551 6.61834 13.0062 6.61132 13.0568C6.52373 13.6885 5.3045 12.9506 4.83673 12.1704C4.58287 11.747 4.55032 11.1907 4.57701 10.7564C4.60558 10.2917 4.74183 9.84284 4.87549 9.39684L5.16029 8.44681H1.64745C1.21832 8.44681 0.90806 8.03677 1.0247 7.62381L2.76231 1.4712C2.84103 1.19245 3.09541 0.999969 3.38506 0.999969H8.8812C9.23861 0.999969 9.52832 1.28968 9.52832 1.64708V7.99707Z" stroke="#474747" stroke-width="1.152" stroke-linecap="round" stroke-linejoin="round"/>
</svg>
