<svg width="15" height="14" viewBox="0 0 15 14" fill="none" xmlns="http://www.w3.org/2000/svg">
<path fill-rule="evenodd" clip-rule="evenodd" d="M1.00248 6.55658C0.969604 6.17847 1.26765 5.85339 1.64716 5.85339H2.88268C3.24008 5.85339 3.5298 6.14311 3.5298 6.50051V12.6481C3.5298 13.0055 3.24008 13.2952 2.88268 13.2952H2.18174C1.84607 13.2952 1.56613 13.0386 1.53705 12.7042L1.00248 6.55658Z" stroke="#474747" stroke-width="1.152" stroke-linecap="round" stroke-linejoin="round"/>
<path fill-rule="evenodd" clip-rule="evenodd" d="M5.47168 6.2981C5.47168 6.0277 5.63974 5.78568 5.88431 5.6704C6.4177 5.41896 7.3266 4.91304 7.73658 4.22927C8.26499 3.34803 8.36464 1.75582 8.38085 1.39111C8.38312 1.34006 8.38166 1.28894 8.38868 1.23832C8.47627 0.606703 9.6955 1.34456 10.1633 2.12473C10.4171 2.54813 10.4497 3.10442 10.423 3.53873C10.3944 4.00343 10.2582 4.45233 10.1245 4.89832L9.83971 5.84835H13.3525C13.7817 5.84835 14.0919 6.2584 13.9753 6.67135L12.2377 12.824C12.159 13.1027 11.9046 13.2952 11.6149 13.2952H6.1188C5.76139 13.2952 5.47168 13.0055 5.47168 12.6481V6.2981Z" stroke="#474747" stroke-width="1.152" stroke-linecap="round" stroke-linejoin="round"/>
</svg>
