<svg width="21" height="21" viewBox="0 0 21 21" fill="none" xmlns="http://www.w3.org/2000/svg">
<g clip-path="url(#clip0_98_777)">
<path d="M20.6039 10.1038C20.3848 10.1038 20.2077 10.2809 20.2077 10.5C20.2077 15.0879 16.4748 18.8208 11.8869 18.8208C7.64727 18.8208 4.14463 15.6311 3.63627 11.5266L5.66336 13.5537C5.74063 13.631 5.84206 13.6698 5.9435 13.6698C6.04493 13.6698 6.14636 13.631 6.22363 13.5537C6.37855 13.3988 6.37855 13.1484 6.22363 12.9935L3.45044 10.2203C3.41399 10.1834 3.37001 10.1545 3.32127 10.1343C3.22459 10.0943 3.11563 10.0943 3.01855 10.1343C2.96982 10.1545 2.92584 10.1838 2.88938 10.2203L0.116193 12.9935C-0.0387311 13.1484 -0.0387311 13.3988 0.116193 13.5537C0.193458 13.631 0.294892 13.6698 0.396326 13.6698C0.49776 13.6698 0.599194 13.631 0.676458 13.5537L2.81925 11.4109C3.27768 16.0099 7.16903 19.6132 11.8869 19.6132C16.9122 19.6132 21.0001 15.5253 21.0001 10.5C21.0001 10.2809 20.823 10.1038 20.6039 10.1038Z" fill="black" stroke="black" stroke-width="0.448"/>
<path d="M19.587 7.3401C19.6496 7.49344 19.7974 7.58576 19.9535 7.58576C20.0038 7.58576 20.0549 7.57625 20.1041 7.55604C20.3065 7.47283 20.4032 7.24144 20.32 7.03896C20.2154 6.78379 20.0977 6.5314 19.9709 6.28812C19.8691 6.09396 19.6298 6.01908 19.436 6.12012C19.2423 6.22155 19.167 6.46087 19.268 6.65502C19.3841 6.87691 19.4911 7.10751 19.587 7.3401Z" fill="black" stroke="black" stroke-width="0.448"/>
<path d="M18.4504 5.38511C18.5285 5.48536 18.645 5.53766 18.763 5.53766C18.8482 5.53766 18.9342 5.51032 19.0063 5.45366C19.1791 5.31894 19.2096 5.07011 19.0749 4.89775C18.9053 4.68023 18.7242 4.46864 18.5368 4.26894C18.3866 4.10966 18.1362 4.10134 17.9769 4.25072C17.8173 4.40049 17.8089 4.6513 17.9587 4.81058C18.1303 4.99364 18.2955 5.1866 18.4504 5.38511Z" fill="black" stroke="black" stroke-width="0.448"/>
<path d="M20.0306 8.78315C20.0817 9.02802 20.1225 9.27923 20.1522 9.52964C20.176 9.73132 20.3468 9.87991 20.5453 9.87991C20.5603 9.87991 20.5762 9.87911 20.5916 9.87713C20.8092 9.85177 20.9645 9.65485 20.9391 9.43772C20.907 9.16393 20.8623 8.88894 20.806 8.6207C20.7612 8.40594 20.5508 8.26964 20.3369 8.31442C20.1225 8.35919 19.9854 8.56919 20.0306 8.78315Z" fill="black" stroke="black" stroke-width="0.448"/>
<path d="M14.1279 2.48474C14.3696 2.5521 14.6113 2.63174 14.8454 2.72129C14.8918 2.73912 14.9393 2.74704 14.9865 2.74704C15.1458 2.74704 15.2963 2.64997 15.357 2.49187C15.4346 2.28742 15.3324 2.0584 15.128 1.98034C14.8712 1.88247 14.6061 1.79491 14.341 1.72161C14.1307 1.66217 13.9115 1.7858 13.8533 1.99659C13.7939 2.20738 13.9175 2.4261 14.1279 2.48474Z" fill="black" stroke="black" stroke-width="0.448"/>
<path d="M11.8869 2.17925C12.1393 2.17925 12.3933 2.19074 12.6422 2.21332C12.654 2.21451 12.6663 2.21491 12.6782 2.21491C12.8811 2.21491 13.0538 2.05998 13.0725 1.85434C13.0923 1.63642 12.9318 1.44385 12.7135 1.42404C12.4409 1.39908 12.1631 1.3868 11.8869 1.3868C11.6678 1.3868 11.4907 1.56391 11.4907 1.78302C11.4907 2.00213 11.6678 2.17925 11.8869 2.17925Z" fill="black" stroke="black" stroke-width="0.448"/>
<path d="M16.2024 3.38456C16.4175 3.51532 16.6283 3.65717 16.8296 3.80615C16.9009 3.85885 16.9834 3.88381 17.0654 3.88381C17.187 3.88381 17.3063 3.82834 17.3843 3.72373C17.5143 3.54781 17.4775 3.29977 17.3019 3.16941C17.0812 3.00617 16.8498 2.85045 16.6145 2.70741C16.4275 2.5937 16.1838 2.65313 16.0701 2.84015C15.9563 3.02717 16.0154 3.27085 16.2024 3.38456Z" fill="black" stroke="black" stroke-width="0.448"/>
</g>
<defs>
<clipPath id="clip0_98_777">
<rect width="21" height="21" fill="white"/>
</clipPath>
</defs>
</svg>
