<svg width="26" height="26" viewBox="0 0 26 26" fill="none" xmlns="http://www.w3.org/2000/svg">
<path d="M0 4.875V6.5H15.4375V18.6875H10.4355C10.0737 17.291 8.81689 16.25 7.3125 16.25C5.80811 16.25 4.55127 17.291 4.18945 18.6875H3.25V14.625H1.625V20.3125H4.18945C4.55127 21.709 5.80811 22.75 7.3125 22.75C8.81689 22.75 10.0737 21.709 10.4355 20.3125H17.1895C17.5513 21.709 18.8081 22.75 20.3125 22.75C21.8169 22.75 23.0737 21.709 23.4355 20.3125H26V13.6855L25.9492 13.5586L24.3242 8.68359L24.1465 8.125H17.0625V4.875H0ZM0.8125 8.125V9.75H8.125V8.125H0.8125ZM17.0625 9.75H22.9785L24.375 13.9141V18.6875H23.4355C23.0737 17.291 21.8169 16.25 20.3125 16.25C18.8081 16.25 17.5513 17.291 17.1895 18.6875H17.0625V9.75ZM1.625 11.375V13H6.5V11.375H1.625ZM7.3125 17.875C8.22021 17.875 8.9375 18.5923 8.9375 19.5C8.9375 20.4077 8.22021 21.125 7.3125 21.125C6.40479 21.125 5.6875 20.4077 5.6875 19.5C5.6875 18.5923 6.40479 17.875 7.3125 17.875ZM20.3125 17.875C21.2202 17.875 21.9375 18.5923 21.9375 19.5C21.9375 20.4077 21.2202 21.125 20.3125 21.125C19.4048 21.125 18.6875 20.4077 18.6875 19.5C18.6875 18.5923 19.4048 17.875 20.3125 17.875Z" fill="black"/>
</svg>
